<svg id="Layer_1" data-name="Layer 1" xmlns="http://www.w3.org/2000/svg" viewBox="0 0 480 532"><defs><style>.cls-1{fill:#010101;}</style></defs><title>PlaceHolder</title><path class="cls-1" d="M309.53,139.19c4.5,3.75-19.66-30.5-59.66-37.5s-65.67,15.33-73,21.66-41.34,49.84-19.84,105.34c0,0-7.25-11.75-14-4.75s4,52.25,11,60.25c0,0,6.5,6.75,11,2.25,0,0-.16,30.58,14.84,44.25l3.06,38.97a40.243,40.243,0,0,1-2.42,7.82c-5.12,12.16-18.4,21.76-69.28,38.56s-74.4,43.2-82.56,55.68-2.88,64.8-2.88,64.8l208.48,1.06,208.47-1.06s5.28-52.32-2.88-64.8h0c-8.16-12.48-31.68-38.88-82.56-55.68s-64.15-26.4-69.27-38.56a40.373,40.373,0,0,1-2.25-7c-.04-.86-.23-5.54-.4-11.27a12.39,12.39,0,0,1,.41-1.57l-.45-.1c-.26-9.7-.39-21.46.45-22.85,0,0,16.24-25.5,16.74-48,0,0,5.67,2.66,10.34-6.67s7.33-23.11,8.33-26.05,8.33-31.28,0-28.28-9.33,5.33-9.33,5.33S339,164,309,138"/></svg>