<svg xmlns="http://www.w3.org/2000/svg" viewBox="0 0 1245.694 198.284"><title>Wallace-Graham-logo-blackBG</title><g id="Layer_3" data-name="Layer 3"><path d="M359.744,113.516v.6h-.529a5.636,5.636,0,0,0-5.281,3.73l-9.968,31.836a30.33,30.33,0,0,0-1.316,6.691h-.568l-12.31-34.422-9.12,27.73a30.81,30.81,0,0,0-1.262,6.691h-.568l-13.661-38.587a5.692,5.692,0,0,0-5.276-3.671H299.4v-.6H312.78v.6h-.529c-1.54,0-3.059,1.332-2.351,3.7l9.105,29.3,11.208-34.535.561.019,11.871,33.3,8.061-28.188c.6-2.311-.693-3.591-2.331-3.591h-.529v-.6Z" transform="translate(-27 -36.619)" style="fill:#787677"/><path d="M413.748,151.261a5.955,5.955,0,0,0,5.288,3.789h.5v.6H405.984v-.6h.529c1.554,0,3.167-1.369,2.288-3.778l-3.85-10.253H388.737L384.7,151.313c-.849,2.387.755,3.742,2.3,3.742h.529v.6H375.419v-.6h.542a5.953,5.953,0,0,0,5.273-3.785l13.651-32.392s2.229-4.876,2.229-6.2h.542Zm-9.476-12.042-7.255-19.32-7.572,19.32Z" transform="translate(-27 -36.619)" style="fill:#787677"/><path d="M473.978,145.93l-3.509,9.724H445.515l.009-.6h.762a3.856,3.856,0,0,0,3.855-3.785V117.905a3.858,3.858,0,0,0-3.856-3.785h-.761l-.01-.6h13.17l-.01.6h-.762a3.858,3.858,0,0,0-3.856,3.785v35.906h8.633c6.378,0,8.828-3.3,10.686-7.883Z" transform="translate(-27 -36.619)" style="fill:#787677"/><path d="M527.924,145.93l-3.509,9.724H499.461l.009-.6h.762a3.856,3.856,0,0,0,3.855-3.785V117.905a3.858,3.858,0,0,0-3.856-3.785h-.761l-.01-.6h13.17l-.01.6h-.762A3.857,3.857,0,0,0,508,117.905v35.906h8.633c6.378,0,8.828-3.3,10.686-7.883Z" transform="translate(-27 -36.619)" style="fill:#787677"/><path d="M585.421,151.261a5.955,5.955,0,0,0,5.288,3.789h.5v.6H577.657v-.6h.529c1.554,0,3.167-1.369,2.288-3.778l-3.85-10.253H560.41l-4.033,10.289c-.849,2.387.755,3.742,2.3,3.742h.529v.6H547.091v-.6h.542a5.953,5.953,0,0,0,5.273-3.785l13.651-32.392s2.229-4.876,2.229-6.2h.542Zm-9.476-12.042-7.255-19.32-7.572,19.32Z" transform="translate(-27 -36.619)" style="fill:#787677"/><path d="M654.227,138.083l-.733,9.448c-3.172,5.186-8.557,8.966-16.916,8.966-12.588-.061-21.5-8.668-21.5-21.972,0-13.062,8.608-21.851,21.851-21.851a25.726,25.726,0,0,1,14.238,4.065l1.214,8.5h-.5c-1.829-7.027-7.728-10.759-14.963-10.764-10.583,0-17.325,8.006-17.325,19.985,0,12.1,6.862,19.985,16.983,20.229,8.547-.025,15.779-4.281,17.148-16.608Z" transform="translate(-27 -36.619)" style="fill:#787677"/><path d="M706.807,155.653H681.852l.009-.6h.762a3.857,3.857,0,0,0,3.856-3.785V117.561a3.858,3.858,0,0,0-3.835-3.448h-.762l-.009-.6h17.591a26.045,26.045,0,0,0,7.176-1.1v7.6l-.608-.009v-1.073a3.59,3.59,0,0,0-3.37-3.583H690.39v18.61h10.173A2.966,2.966,0,0,0,703.475,131v-.887l.588-.008v9.526l-.588-.007v-.887a2.967,2.967,0,0,0-2.849-2.965H690.39v18.037h8.633c6.378,0,8.828-3.3,10.686-7.883h.6Z" transform="translate(-27 -36.619)" style="fill:#787677"/><path d="M817.771,128.119c-2.166,0-3.118,1.347-2.735,3.34,1.164,6.047.349,11.708-2.173,16.112,3.966,3.423,8.259,7.111,12.949,7.469v.739c-2.867,0-9.652.573-15.9-4.384-3.27,3.2-7.885,5.122-13.642,5.122-14.448,0-22.612-6.3-22.612-17.3,0-6.727,3.805-11.049,8.934-13.647a17.98,17.98,0,0,1-2.8-9.864c0-7.236,5.781-12.679,14.851-12.679,4.925.069,9.909,2.089,12.514,5.264l-1.281,8.358h-.738c0-7.073-4.217-11.408-10.495-11.408-5.637,0-9.756,4.434-9.756,10.463,0,6.188,4.111,10.9,11.719,17.712,3.092,2.767,7.171,6.584,13.4,11.739a16.508,16.508,0,0,0,.04-13.67c-.985-2-2.448-3.368-4.758-3.365h-1.164v-.738h14.758v.738Zm-21.5,26.159a14.363,14.363,0,0,0,11.107-4.967c-6.183-5.114-10.292-8.68-14.169-12.24a74.412,74.412,0,0,1-9.4-9.723c-3.41,3.15-4.754,7.346-4.754,11.866,0,8.9,6.207,15.064,17.222,15.064Z" transform="translate(-27 -36.619)" style="fill:#787677"/><path d="M932,136.067c-1.946,0-3.042.982-3.014,2.723v9.954c-2.744,3.648-8.369,7.754-17.409,7.754-12.8-.06-21.636-8.811-21.636-21.911,0-13.146,8.835-21.911,21.618-21.911a25.554,25.554,0,0,1,14.592,4.065l1.215,8.5h-.5c-1.828-6.889-7.338-10.764-15.287-10.764-10.2,0-17.121,8.044-17.121,20.11,0,12.012,6.918,20.056,17.121,20.11a20.131,20.131,0,0,0,13.583-5.221V138.813c0-1.758-1.153-2.746-3.1-2.746h-.949v-.6H932.9v.6Z" transform="translate(-27 -36.619)" style="fill:#787677"/><path d="M976.711,112.967c7.295,0,11.766,4.3,11.766,11.313,0,5.828-4.437,11.478-10.226,11.478a14.606,14.606,0,0,1,4.308,4.235s5.189,7.41,7.52,9.956c2.422,2.646,4.649,4.523,8.187,4.552v.6h-3.3c-5.6,0-8.61-3.018-10.5-5.277-.684-.816-7.467-10.686-7.93-11.268-1.573-1.977-3.329-4.062-5.528-4.062v-.557s1.369.029,3.181-.02c3.123-.085,7.688-.829,9.4-6.25a12.467,12.467,0,0,0,.383-3.6c-.147-5.444-2.985-8.931-7.467-9.177-3.069-.168-6.713-.019-7.494-.047v35.877a3.856,3.856,0,0,0,3.855,3.785h.762l.01.6h-13.15l.01-.6h.762a3.854,3.854,0,0,0,3.854-3.756v-33.4a3.858,3.858,0,0,0-3.856-3.785h-.762l-.01-.6Z" transform="translate(-27 -36.619)" style="fill:#787677"/><path d="M1054.556,150.713a5.954,5.954,0,0,0,5.287,3.789h.5v.6h-13.555v-.6h.529c1.555,0,3.166-1.369,2.287-3.778l-3.85-10.253h-16.214l-4.032,10.289c-.85,2.387.755,3.742,2.3,3.742h.529v.6h-12.116v-.6h.542a5.952,5.952,0,0,0,5.272-3.785l13.651-32.392s2.229-4.876,2.229-6.2h.542Zm-9.477-12.042-7.255-19.32-7.572,19.32Z" transform="translate(-27 -36.619)" style="fill:#787677"/><path d="M1113.87,155.106l.009-.6h.762a3.857,3.857,0,0,0,3.854-3.74V135.176h-24.634v15.542a3.858,3.858,0,0,0,3.856,3.785h.761l.01.6h-13.17l.01-.6h.761a3.858,3.858,0,0,0,3.856-3.785V117.325a3.857,3.857,0,0,0-3.854-3.76h-.762l-.01-.6h13.169l-.01.6h-.762a3.858,3.858,0,0,0-3.855,3.748V133.37h24.634v-16.1a3.858,3.858,0,0,0-3.854-3.71h-.762l-.01-.6h13.169l-.01.6h-.762a3.855,3.855,0,0,0-3.854,3.785v33.368a3.855,3.855,0,0,0,3.855,3.785h.761l.01.6Z" transform="translate(-27 -36.619)" style="fill:#787677"/><path d="M1190.393,150.713a5.954,5.954,0,0,0,5.287,3.789h.5v.6h-13.555v-.6h.529c1.555,0,3.166-1.369,2.287-3.778l-3.85-10.253h-16.214l-4.032,10.289c-.85,2.387.755,3.742,2.3,3.742h.529v.6h-12.116v-.6h.542a5.952,5.952,0,0,0,5.272-3.785l13.651-32.392s2.229-4.876,2.229-6.2h.542Zm-9.477-12.042-7.255-19.32-7.572,19.32Z" transform="translate(-27 -36.619)" style="fill:#787677"/><path d="M1267.35,150.731a4.274,4.274,0,0,0,4.388,3.771h.957v.6h-13.085v-.568h.938a2.466,2.466,0,0,0,2.348-2.57l-2.729-30.29-12.65,28.126a30.315,30.315,0,0,0-2.065,6.146h-.567l-15.394-33.4-2.643,29.417a2.466,2.466,0,0,0,2.347,2.57h.938v.568h-11.658v-.6h.958a4.274,4.274,0,0,0,4.388-3.771l4.528-38.607h.559l16.8,36.323,16.423-36.3h.55Z" transform="translate(-27 -36.619)" style="fill:#787677"/></g><g id="Layer_2" data-name="Layer 2"><rect x="3.5" y="3.5" width="194.5" height="191.284"/><path d="M221.5,43.619V227.9H34V43.619H221.5m7-7H27V234.9H228.5V36.619Z" transform="translate(-27 -36.619)" style="fill:#fdd31c"/><path d="M358.743,112.364v.6h-.529a5.636,5.636,0,0,0-5.281,3.73l-9.968,31.836a30.33,30.33,0,0,0-1.316,6.691h-.568L328.771,120.8l-9.12,27.73a30.81,30.81,0,0,0-1.262,6.691h-.568L304.16,116.636a5.692,5.692,0,0,0-5.276-3.671H298.4v-.6H311.78v.6h-.529c-1.54,0-3.059,1.332-2.351,3.7l9.105,29.3,11.208-34.535.561.019,11.871,33.3,8.061-28.188c.6-2.311-.693-3.591-2.331-3.591h-.529v-.6Z" transform="translate(-27 -36.619)" style="fill:#fdd31c"/><path d="M412.747,150.108a5.955,5.955,0,0,0,5.288,3.789h.5v.6H404.983v-.6h.529c1.554,0,3.167-1.369,2.288-3.778l-3.85-10.253H387.736L383.7,150.161c-.849,2.387.755,3.742,2.3,3.742h.529v.6H374.418v-.6h.542a5.953,5.953,0,0,0,5.273-3.785l13.651-32.392s2.229-4.876,2.229-6.2h.542Zm-9.476-12.042-7.255-19.32-7.572,19.32Z" transform="translate(-27 -36.619)" style="fill:#fdd31c"/><path d="M472.978,144.777l-3.509,9.724H444.514l.009-.6h.762a3.856,3.856,0,0,0,3.855-3.785V116.752a3.858,3.858,0,0,0-3.856-3.785h-.761l-.01-.6h13.17l-.01.6h-.762a3.858,3.858,0,0,0-3.856,3.785v35.906h8.633c6.378,0,8.828-3.3,10.686-7.883Z" transform="translate(-27 -36.619)" style="fill:#fdd31c"/><path d="M526.924,144.777l-3.509,9.724H498.46l.009-.6h.762a3.856,3.856,0,0,0,3.855-3.785V116.752a3.858,3.858,0,0,0-3.856-3.785h-.761l-.01-.6h13.17l-.01.6h-.762A3.857,3.857,0,0,0,507,116.752v35.906h8.633c6.378,0,8.828-3.3,10.686-7.883Z" transform="translate(-27 -36.619)" style="fill:#fdd31c"/><path d="M584.42,150.108a5.955,5.955,0,0,0,5.288,3.789h.5v.6H576.656v-.6h.529c1.554,0,3.167-1.369,2.288-3.778l-3.85-10.253H559.409l-4.033,10.289c-.849,2.387.755,3.742,2.3,3.742h.529v.6H546.09v-.6h.542a5.953,5.953,0,0,0,5.273-3.785l13.651-32.392s2.229-4.876,2.229-6.2h.542Zm-9.476-12.042-7.255-19.32-7.572,19.32Z" transform="translate(-27 -36.619)" style="fill:#fdd31c"/><path d="M653.226,136.93l-.733,9.448c-3.172,5.186-8.557,8.966-16.916,8.966-12.588-.061-21.5-8.668-21.5-21.972,0-13.063,8.608-21.851,21.851-21.851a25.726,25.726,0,0,1,14.238,4.065l1.214,8.5h-.5c-1.829-7.027-7.728-10.759-14.963-10.764-10.583,0-17.325,8.006-17.325,19.985,0,12.1,6.862,19.985,16.983,20.229,8.547-.025,15.779-4.281,17.148-16.608Z" transform="translate(-27 -36.619)" style="fill:#fdd31c"/><path d="M705.806,154.5H680.852l.009-.6h.762a3.857,3.857,0,0,0,3.856-3.785V116.408a3.858,3.858,0,0,0-3.835-3.448h-.762l-.009-.6h17.591a26.045,26.045,0,0,0,7.176-1.1v7.6l-.608-.009v-1.073a3.59,3.59,0,0,0-3.37-3.583H689.389v18.61h10.173a2.966,2.966,0,0,0,2.912-2.965v-.887l.588-.008v9.526l-.588-.007v-.887a2.967,2.967,0,0,0-2.849-2.965H689.389v18.037h8.633c6.378,0,8.828-3.3,10.686-7.883h.6Z" transform="translate(-27 -36.619)" style="fill:#fdd31c"/><path d="M816.77,126.966c-2.166,0-3.118,1.347-2.735,3.34,1.164,6.047.349,11.708-2.173,16.112,3.966,3.423,8.259,7.111,12.949,7.469v.739c-2.867,0-9.652.573-15.9-4.384-3.27,3.2-7.885,5.122-13.642,5.122-14.448,0-22.612-6.3-22.612-17.3,0-6.727,3.805-11.049,8.934-13.647a17.98,17.98,0,0,1-2.8-9.864c0-7.236,5.781-12.679,14.851-12.679,4.925.069,9.909,2.089,12.514,5.264l-1.281,8.358h-.738c0-7.073-4.217-11.408-10.495-11.408-5.637,0-9.756,4.434-9.756,10.463,0,6.188,4.111,10.9,11.719,17.712,3.092,2.767,7.171,6.584,13.4,11.739a16.508,16.508,0,0,0,.04-13.67c-.985-2-2.448-3.368-4.758-3.365h-1.164v-.738h14.758v.738Zm-21.5,26.159a14.363,14.363,0,0,0,11.107-4.967c-6.183-5.114-10.292-8.68-14.169-12.24a74.412,74.412,0,0,1-9.4-9.723c-3.41,3.15-4.754,7.346-4.754,11.866,0,8.9,6.207,15.064,17.222,15.064Z" transform="translate(-27 -36.619)" style="fill:#fdd31c"/><path d="M931,134.915c-1.946,0-3.042.982-3.014,2.723v9.954c-2.744,3.648-8.369,7.754-17.409,7.754-12.8-.06-21.636-8.811-21.636-21.911,0-13.146,8.835-21.911,21.618-21.911a25.554,25.554,0,0,1,14.592,4.065l1.215,8.5h-.5c-1.828-6.889-7.338-10.764-15.287-10.764-10.2,0-17.121,8.044-17.121,20.11,0,12.012,6.918,20.056,17.121,20.11a20.131,20.131,0,0,0,13.583-5.221V137.66c0-1.758-1.153-2.746-3.1-2.746h-.949v-.6H931.9v.6Z" transform="translate(-27 -36.619)" style="fill:#fdd31c"/><path d="M975.71,111.814c7.295,0,11.766,4.3,11.766,11.313,0,5.828-4.437,11.478-10.226,11.478a14.606,14.606,0,0,1,4.308,4.235s5.189,7.41,7.52,9.956c2.422,2.646,4.649,4.523,8.187,4.552v.6h-3.3c-5.6,0-8.61-3.018-10.5-5.277-.684-.816-7.467-10.686-7.93-11.268-1.573-1.977-3.329-4.062-5.528-4.062v-.557s1.369.029,3.181-.02c3.123-.085,7.688-.829,9.4-6.25a12.467,12.467,0,0,0,.383-3.6c-.147-5.444-2.985-8.931-7.467-9.177-3.069-.168-6.713-.019-7.494-.047v35.877a3.856,3.856,0,0,0,3.855,3.785h.762l.01.6h-13.15l.01-.6h.762A3.854,3.854,0,0,0,964.1,149.6V116.2a3.858,3.858,0,0,0-3.856-3.785h-.762l-.01-.6Z" transform="translate(-27 -36.619)" style="fill:#fdd31c"/><path d="M1053.555,149.561a5.954,5.954,0,0,0,5.287,3.789h.5v.6H1045.79v-.6h.529c1.555,0,3.166-1.369,2.287-3.778l-3.85-10.253h-16.214l-4.032,10.289c-.85,2.387.755,3.742,2.3,3.742h.529v.6h-12.116v-.6h.542a5.952,5.952,0,0,0,5.272-3.785l13.651-32.392s2.229-4.876,2.229-6.2h.542Zm-9.477-12.042-7.255-19.32-7.572,19.32Z" transform="translate(-27 -36.619)" style="fill:#fdd31c"/><path d="M1112.869,153.953l.009-.6h.762a3.857,3.857,0,0,0,3.854-3.74V134.023H1092.86v15.542a3.858,3.858,0,0,0,3.856,3.785h.761l.01.6h-13.17l.01-.6h.761a3.858,3.858,0,0,0,3.856-3.785V116.172a3.857,3.857,0,0,0-3.854-3.76h-.762l-.01-.6h13.169l-.01.6h-.762a3.858,3.858,0,0,0-3.855,3.748v16.058h24.634v-16.1a3.858,3.858,0,0,0-3.854-3.71h-.762l-.01-.6h13.169l-.01.6h-.762a3.855,3.855,0,0,0-3.854,3.785v33.368a3.855,3.855,0,0,0,3.855,3.785h.761l.01.6Z" transform="translate(-27 -36.619)" style="fill:#fdd31c"/><path d="M1189.393,149.561a5.954,5.954,0,0,0,5.287,3.789h.5v.6h-13.555v-.6h.529c1.555,0,3.166-1.369,2.287-3.778l-3.85-10.253h-16.214l-4.032,10.289c-.85,2.387.755,3.742,2.3,3.742h.529v.6h-12.116v-.6h.542a5.952,5.952,0,0,0,5.272-3.785l13.651-32.392s2.229-4.876,2.229-6.2h.542Zm-9.477-12.042-7.255-19.32-7.572,19.32Z" transform="translate(-27 -36.619)" style="fill:#fdd31c"/><path d="M1266.349,149.578a4.274,4.274,0,0,0,4.388,3.771h.957v.6h-13.085v-.568h.938a2.466,2.466,0,0,0,2.348-2.57l-2.729-30.29-12.65,28.126a30.315,30.315,0,0,0-2.065,6.146h-.567l-15.394-33.4-2.643,29.417a2.466,2.466,0,0,0,2.347,2.57h.938v.568h-11.658v-.6h.958a4.274,4.274,0,0,0,4.388-3.771l4.528-38.607h.559l16.8,36.323,16.423-36.3h.55Z" transform="translate(-27 -36.619)" style="fill:#fdd31c"/><path d="M131.5,71.313v.881h-.825a8.788,8.788,0,0,0-8.227,5.466l-15.528,46.648a42.159,42.159,0,0,0-2.05,9.8h-.885L84.808,83.676,70.6,124.308a42.8,42.8,0,0,0-1.966,9.8H67.75L46.469,77.573a8.886,8.886,0,0,0-8.22-5.38H37.5v-.882H58.338v.874h-.824c-2.4,0-4.765,1.952-3.662,5.419l14.185,42.929L85.5,69.931l.873.028,18.493,48.792,12.558-41.3c.931-3.386-1.079-5.262-3.631-5.262h-.825V71.31Z" transform="translate(-27 -36.619)" style="fill:#fdd31c"/><path d="M212.988,173c-3.018,0-4.718,1.7-4.674,4.718v17.25c-4.256,6.323-12.979,13.437-27,13.437-19.852-.1-33.553-15.268-33.553-37.971,0-22.782,13.7-37.971,33.526-37.971,10.268,0,17.145,3.1,22.629,7.044l1.884,14.734h-.777c-2.835-11.939-11.38-18.653-23.708-18.653-15.823,0-26.552,13.94-26.552,34.85,0,20.817,10.729,34.757,26.552,34.85a29.475,29.475,0,0,0,21.065-9.047V177.756c0-3.047-1.789-4.759-4.8-4.759h-1.472v-1.043h18.286V173Z" transform="translate(-27 -36.619)" style="fill:#fdd31c"/><path d="M151.662,133.237c-2.111,0-3.04,1.283-2.666,3.18,1.135,5.758.34,11.148-2.119,15.342,3.866,3.26,8.051,6.771,12.623,7.112v.7c-2.795,0-9.409.545-15.5-4.175-3.188,3.044-7.687,4.877-13.3,4.877-14.085,0-22.044-5.994-22.044-16.476,0-6.405,3.71-10.521,8.709-12.994a16.828,16.828,0,0,1-2.725-9.393c0-6.89,5.636-12.073,14.478-12.073,4.8.065,9.66,1.99,12.2,5.012l-1.249,7.959h-.72c0-6.735-4.111-10.863-10.231-10.863-5.495,0-9.511,4.222-9.511,9.963,0,5.893,4.007,10.381,11.424,16.866,3.015,2.635,6.991,6.269,13.06,11.178a15.387,15.387,0,0,0,.039-13.017c-.96-1.909-2.386-3.207-4.638-3.2h-1.135v-.7h14.387v.7ZM130.7,158.146a14.145,14.145,0,0,0,10.828-4.73c-6.028-4.869-10.034-8.265-13.813-11.655a71.626,71.626,0,0,1-9.168-9.258,14.594,14.594,0,0,0-4.635,11.3c0,8.471,6.051,14.344,16.789,14.344Z" transform="translate(-27 -36.619)" style="fill:#fdd31c"/></g></svg>